<svg width="30" height="25" viewBox="0 0 30 25" fill="none" xmlns="http://www.w3.org/2000/svg">
<g id="643faa3571e2c62fb7dcb5d2_Insights - Cerebrovascular 1" clip-path="url(#clip0_1670_432)">
<path id="Vector" d="M16.8904 2.70932C17.5033 2.70932 18 2.21474 18 1.60466C18 0.994572 17.5033 0.5 16.8904 0.5C16.2776 0.5 15.7808 0.994572 15.7808 1.60466C15.7808 2.21474 16.2776 2.70932 16.8904 2.70932Z" fill="white"/>
<path id="Vector_2" d="M12.9041 2.30039C12.9041 3.24941 12.1313 4.01874 11.1781 4.01874C10.2248 4.01874 9.45203 3.24941 9.45203 2.30039C9.45203 1.35137 10.2248 0.582031 11.1781 0.582031C12.1313 0.582031 12.9041 1.35137 12.9041 2.30039Z" fill="white"/>
<path id="Vector_3" d="M8.38354 3.03643C8.8375 3.03643 9.20548 2.67008 9.20548 2.21817C9.20548 1.76625 8.8375 1.3999 8.38354 1.3999C7.92963 1.3999 7.56165 1.76625 7.56165 2.21817C7.56165 2.67008 7.92963 3.03643 8.38354 3.03643Z" fill="white"/>
<path id="Vector_4" d="M7.72603 8.7644C9.26942 8.7644 10.5206 7.5188 10.5206 5.98232C10.5206 4.44578 9.26942 3.2002 7.72603 3.2002C6.18269 3.2002 4.93152 4.44578 4.93152 5.98232C4.93152 7.5188 6.18269 8.7644 7.72603 8.7644Z" fill="white"/>
<path id="Vector_5" d="M5.01367 8.02802C5.01367 9.06744 4.1673 9.91 3.12326 9.91C2.07921 9.91 1.23285 9.06744 1.23285 8.02802C1.23285 6.98861 2.07921 6.146 3.12326 6.146C4.1673 6.146 5.01367 6.98861 5.01367 8.02802Z" fill="white"/>
<path id="Vector_6" d="M20.4247 16.3745C22.2631 16.3745 23.7534 14.8908 23.7534 13.0606C23.7534 11.2303 22.2631 9.74658 20.4247 9.74658C18.5862 9.74658 17.0959 11.2303 17.0959 13.0606C17.0959 14.8908 18.5862 16.3745 20.4247 16.3745Z" fill="white"/>
<path id="Vector_7" d="M27.0411 15.8017C28.6752 15.8017 30 14.4828 30 12.8559C30 11.229 28.6752 9.91016 27.0411 9.91016C25.4069 9.91016 24.0822 11.229 24.0822 12.8559C24.0822 14.4828 25.4069 15.8017 27.0411 15.8017Z" fill="white"/>
<path id="Vector_8" d="M27.5343 16.8245C27.5343 17.299 27.1479 17.6837 26.6713 17.6837C26.1946 17.6837 25.8082 17.299 25.8082 16.8245C25.8082 16.35 26.1946 15.9653 26.6713 15.9653C27.1479 15.9653 27.5343 16.35 27.5343 16.8245Z" fill="white"/>
<path id="Vector_9" d="M23.7945 18.5017C24.6343 18.5017 25.3151 17.824 25.3151 16.9879C25.3151 16.1519 24.6343 15.4741 23.7945 15.4741C22.9548 15.4741 22.274 16.1519 22.274 16.9879C22.274 17.824 22.9548 18.5017 23.7945 18.5017Z" fill="white"/>
<path id="Vector_10" d="M21.863 17.8472C21.863 18.4799 21.3478 18.9928 20.7123 18.9928C20.0768 18.9928 19.5616 18.4799 19.5616 17.8472C19.5616 17.2146 20.0768 16.7017 20.7123 16.7017C21.3478 16.7017 21.863 17.2146 21.863 17.8472Z" fill="white"/>
<path id="Vector_11" d="M18.2877 18.42C18.719 18.42 19.0685 18.0719 19.0685 17.6426C19.0685 17.2133 18.719 16.8652 18.2877 16.8652C17.8565 16.8652 17.5069 17.2133 17.5069 17.6426C17.5069 18.0719 17.8565 18.42 18.2877 18.42Z" fill="white"/>
<path id="Vector_12" d="M18.3288 16.2515C18.3288 16.6808 17.9791 17.0288 17.5479 17.0288C17.1167 17.0288 16.7671 16.6808 16.7671 16.2515C16.7671 15.8222 17.1167 15.4741 17.5479 15.4741C17.9791 15.4741 18.3288 15.8222 18.3288 16.2515Z" fill="white"/>
<path id="Vector_13" d="M16.2329 19.0745C16.8003 19.0745 17.2603 18.6165 17.2603 18.0516C17.2603 17.4867 16.8003 17.0288 16.2329 17.0288C15.6655 17.0288 15.2055 17.4867 15.2055 18.0516C15.2055 18.6165 15.6655 19.0745 16.2329 19.0745Z" fill="white"/>
<path id="Vector_14" d="M14.7123 18.5426C14.7123 19.3786 14.0315 20.0564 13.1918 20.0564C12.352 20.0564 11.6712 19.3786 11.6712 18.5426C11.6712 17.7066 12.352 17.0288 13.1918 17.0288C14.0315 17.0288 14.7123 17.7066 14.7123 18.5426Z" fill="white"/>
<path id="Vector_15" d="M9.45202 22.1839C10.4961 22.1839 11.3424 21.3414 11.3424 20.3019C11.3424 19.2625 10.4961 18.4199 9.45202 18.4199C8.40797 18.4199 7.56165 19.2625 7.56165 20.3019C7.56165 21.3414 8.40797 22.1839 9.45202 22.1839Z" fill="white"/>
<path id="Vector_16" d="M12.4931 15.3922C12.4931 16.6576 11.4628 17.6834 10.1918 17.6834C8.92078 17.6834 7.89044 16.6576 7.89044 15.3922C7.89044 14.1268 8.92078 13.1011 10.1918 13.1011C11.4628 13.1011 12.4931 14.1268 12.4931 15.3922Z" fill="white"/>
<path id="Vector_17" d="M5.79452 19.32C6.86129 19.32 7.72604 18.459 7.72604 17.3971C7.72604 16.335 6.86129 15.4741 5.79452 15.4741C4.7278 15.4741 3.86304 16.335 3.86304 17.3971C3.86304 18.459 4.7278 19.32 5.79452 19.32Z" fill="white"/>
<path id="Vector_18" d="M3.53425 16.5381C3.53425 17.0804 3.09266 17.52 2.54794 17.52C2.00323 17.52 1.56165 17.0804 1.56165 16.5381C1.56165 15.9958 2.00323 15.5562 2.54794 15.5562C3.09266 15.5562 3.53425 15.9958 3.53425 16.5381Z" fill="white"/>
<path id="Vector_19" d="M1.68492 15.3926C2.38852 15.3926 2.9589 14.8248 2.9589 14.1243C2.9589 13.4238 2.38852 12.856 1.68492 12.856C0.981328 12.856 0.41095 13.4238 0.41095 14.1243C0.41095 14.8248 0.981328 15.3926 1.68492 15.3926Z" fill="white"/>
<path id="Vector_20" d="M7.8082 12.3238C7.8082 13.6117 6.75948 14.6558 5.46573 14.6558C4.17205 14.6558 3.12329 13.6117 3.12329 12.3238C3.12329 11.0358 4.17205 9.9917 5.46573 9.9917C6.75948 9.9917 7.8082 11.0358 7.8082 12.3238Z" fill="white"/>
<path id="Vector_21" d="M1.31507 12.5286C2.04136 12.5286 2.63014 11.9425 2.63014 11.2194C2.63014 10.4963 2.04136 9.91016 1.31507 9.91016C0.588777 9.91016 0 10.4963 0 11.2194C0 11.9425 0.588777 12.5286 1.31507 12.5286Z" fill="white"/>
<path id="Vector_22" d="M4.76714 5.08222C4.76714 5.57933 4.36236 5.98234 3.86303 5.98234C3.3637 5.98234 2.95892 5.57933 2.95892 5.08222C2.95892 4.58512 3.3637 4.18213 3.86303 4.18213C4.36236 4.18213 4.76714 4.58512 4.76714 5.08222Z" fill="white"/>
<path id="Vector_23" d="M14.9589 10.483C16.9562 10.483 18.5754 8.87101 18.5754 6.88258C18.5754 4.89416 16.9562 3.28223 14.9589 3.28223C12.9616 3.28223 11.3425 4.89416 11.3425 6.88258C11.3425 8.87101 12.9616 10.483 14.9589 10.483Z" fill="white"/>
<path id="Vector_24" d="M15.5343 1.80943C15.5343 2.4873 14.9823 3.03682 14.3014 3.03682C13.6205 3.03682 13.0685 2.4873 13.0685 1.80943C13.0685 1.13155 13.6205 0.582031 14.3014 0.582031C14.9823 0.582031 15.5343 1.13155 15.5343 1.80943Z" fill="white"/>
<path id="Vector_25" d="M21.6165 3.15945C21.6165 4.17626 20.7885 5.00055 19.7671 5.00055C18.7458 5.00055 17.9178 4.17626 17.9178 3.15945C17.9178 2.14264 18.7458 1.31836 19.7671 1.31836C20.7885 1.31836 21.6165 2.14264 21.6165 3.15945Z" fill="white"/>
<path id="Vector_26" d="M22.726 5.00058C23.2026 5.00058 23.5891 4.61592 23.5891 4.14141C23.5891 3.66689 23.2026 3.28223 22.726 3.28223C22.2494 3.28223 21.863 3.66689 21.863 4.14141C21.863 4.61592 22.2494 5.00058 22.726 5.00058Z" fill="white"/>
<path id="Vector_27" d="M22.9315 7.25075C22.9315 8.2676 22.1035 9.09187 21.0822 9.09187C20.0609 9.09187 19.2329 8.2676 19.2329 7.25075C19.2329 6.23395 20.0609 5.40967 21.0822 5.40967C22.1035 5.40967 22.9315 6.23395 22.9315 7.25075Z" fill="white"/>
<path id="Vector_28" d="M24.6165 7.29156C25.3655 7.29156 25.9726 6.68713 25.9726 5.94143C25.9726 5.19579 25.3655 4.59131 24.6165 4.59131C23.8675 4.59131 23.2603 5.19579 23.2603 5.94143C23.2603 6.68713 23.8675 7.29156 24.6165 7.29156Z" fill="white"/>
<path id="Vector_29" d="M28.0274 8.39603C28.0274 9.14169 27.4202 9.74617 26.6712 9.74617C25.9222 9.74617 25.3151 9.14169 25.3151 8.39603C25.3151 7.65038 25.9222 7.0459 26.6712 7.0459C27.4202 7.0459 28.0274 7.65038 28.0274 8.39603Z" fill="white"/>
<path id="Vector_30" d="M23.8356 10.6466C24.4711 10.6466 24.9863 10.1337 24.9863 9.50102C24.9863 8.86832 24.4711 8.35547 23.8356 8.35547C23.2001 8.35547 22.6849 8.86832 22.6849 9.50102C22.6849 10.1337 23.2001 10.6466 23.8356 10.6466Z" fill="white"/>
<path id="Vector_31" d="M16.7671 14.5332C16.7671 15.5953 15.9023 16.4562 14.8356 16.4562C13.7689 16.4562 12.9041 15.5953 12.9041 14.5332C12.9041 13.4713 13.7689 12.6104 14.8356 12.6104C15.9023 12.6104 16.7671 13.4713 16.7671 14.5332Z" fill="white"/>
<path id="Vector_32" d="M15.6575 12.4468C16.0888 12.4468 16.4383 12.0988 16.4383 11.6695C16.4383 11.2401 16.0888 10.8921 15.6575 10.8921C15.2263 10.8921 14.8767 11.2401 14.8767 11.6695C14.8767 12.0988 15.2263 12.4468 15.6575 12.4468Z" fill="white"/>
<path id="Vector_33" d="M13.8904 11.9149C13.8904 12.4798 13.4304 12.9377 12.863 12.9377C12.2956 12.9377 11.8356 12.4798 11.8356 11.9149C11.8356 11.3501 12.2956 10.8921 12.863 10.8921C13.4304 10.8921 13.8904 11.3501 13.8904 11.9149Z" fill="white"/>
<path id="Vector_34" d="M9.78083 12.2013C10.7341 12.2013 11.5069 11.432 11.5069 10.483C11.5069 9.53398 10.7341 8.76465 9.78083 8.76465C8.82758 8.76465 8.05481 9.53398 8.05481 10.483C8.05481 11.432 8.82758 12.2013 9.78083 12.2013Z" fill="white"/>
<path id="Vector_35" d="M8.95892 23.2479C8.95892 23.8353 8.48052 24.3116 7.89044 24.3116C7.30029 24.3116 6.8219 23.8353 6.8219 23.2479C6.8219 22.6603 7.30029 22.1841 7.89044 22.1841C8.48052 22.1841 8.95892 22.6603 8.95892 23.2479Z" fill="white"/>
<path id="Vector_36" d="M6.49313 21.2019C6.90172 21.2019 7.2329 20.8722 7.2329 20.4654C7.2329 20.0587 6.90172 19.729 6.49313 19.729C6.0846 19.729 5.75342 20.0587 5.75342 20.4654C5.75342 20.8722 6.0846 21.2019 6.49313 21.2019Z" fill="white"/>
<path id="Vector_37" d="M10.166 18.0284C11.4869 18.0284 12.5577 16.9554 12.5577 15.6319C12.5577 14.3083 11.4869 13.2354 10.166 13.2354C8.84501 13.2354 7.77417 14.3083 7.77417 15.6319C7.77417 16.9554 8.84501 18.0284 10.166 18.0284Z" fill="#DC6159"/>
</g>
<defs>
<clipPath id="clip0_1670_432">
<rect width="30" height="24" fill="white" transform="translate(0 0.5)"/>
</clipPath>
</defs>
</svg>
