<svg width="23" height="24" viewBox="0 0 23 24" fill="none" xmlns="http://www.w3.org/2000/svg">
<g id="android-brain_icon-icons.com_66654 1" clip-path="url(#clip0_1898_600)">
<g id="People">
<g id="Icon-9">
<path id="android-brain" fill-rule="evenodd" clip-rule="evenodd" d="M8.2998 10.8C8.2998 11.0204 8.479 11.2 8.69981 11.2C8.9206 11.2 9.0998 11.0204 9.0998 10.8C9.0998 10.5796 8.9206 10.4 8.69981 10.4C8.479 10.4 8.2998 10.5796 8.2998 10.8ZM9.0998 18C9.0998 17.7796 8.9206 17.6 8.69981 17.6C8.479 17.6 8.2998 17.7796 8.2998 18C8.2998 18.2204 8.479 18.4 8.69981 18.4C8.9206 18.4 9.0998 18.2204 9.0998 18ZM5.8998 10.8C5.8998 10.5796 5.7206 10.4 5.4998 10.4C5.279 10.4 5.0998 10.5796 5.0998 10.8C5.0998 11.0204 5.279 11.2 5.4998 11.2C5.7206 11.2 5.8998 11.0204 5.8998 10.8ZM5.8998 15.6C5.8998 15.3796 5.7206 15.2 5.4998 15.2C5.279 15.2 5.0998 15.3796 5.0998 15.6C5.0998 15.8204 5.279 16 5.4998 16C5.7206 16 5.8998 15.8204 5.8998 15.6ZM8.2998 6.8C8.2998 7.0204 8.479 7.2 8.69981 7.2C8.9206 7.2 9.0998 7.0204 9.0998 6.8C9.0998 6.5796 8.9206 6.4 8.69981 6.4C8.479 6.4 8.2998 6.5796 8.2998 6.8ZM5.8998 7.2V9.6736C6.239 9.7944 6.5054 10.0612 6.6258 10.4H7.5738C7.7394 9.9352 8.179 9.6 8.69981 9.6C9.3614 9.6 9.89981 10.1384 9.89981 10.8C9.89981 11.3208 9.56421 11.7604 9.0998 11.9264V16.8736C9.56421 17.0396 9.89981 17.4792 9.89981 18C9.89981 18.5208 9.56421 18.9604 9.0998 19.1264V20.4C9.0998 20.6208 8.92101 20.8 8.69981 20.8C8.47861 20.8 8.2998 20.6208 8.2998 20.4V19.126C7.8914 18.9808 7.58701 18.6232 7.51861 18.184L6.017 16.6828C6.0158 16.682 6.01581 16.6804 6.01461 16.6792C5.8582 16.7544 5.685 16.8 5.4998 16.8C4.8382 16.8 4.2998 16.2616 4.2998 15.6C4.2998 14.9384 4.8382 14.4 5.4998 14.4C6.1614 14.4 6.6998 14.9384 6.6998 15.6C6.6998 15.7848 6.6542 15.9584 6.579 16.1148C6.5802 16.116 6.58141 16.1164 6.5826 16.1172L7.7454 17.2804C7.88581 17.0948 8.077 16.9532 8.2998 16.8736V11.926C7.9606 11.8056 7.6942 11.5388 7.5738 11.2H6.6258C6.46021 11.6648 6.0206 12 5.4998 12C4.8382 12 4.2998 11.4616 4.2998 10.8C4.2998 10.2792 4.6354 9.8396 5.0998 9.6736V6.8C5.0998 6.5792 5.2786 6.4 5.4998 6.4H7.5738C7.6942 6.0612 7.9606 5.7944 8.2998 5.6736V4.4C8.2998 4.1792 8.47861 4 8.69981 4C8.92101 4 9.0998 4.1792 9.0998 4.4V5.6736C9.56421 5.8396 9.89981 6.2792 9.89981 6.8C9.89981 7.4616 9.3614 8 8.69981 8C8.179 8 7.7394 7.6648 7.5738 7.2H5.8998ZM21.753 14.898C22.3486 14.3744 22.6998 13.6168 22.6998 12.8C22.6998 11.944 22.3194 11.1576 21.6658 10.6296C21.8198 10.3084 21.8998 9.9584 21.8998 9.6C21.8998 8.7744 21.4666 8.014 20.783 7.58C20.9894 7.2204 21.0998 6.8148 21.0998 6.4C21.0998 5.368 20.4442 4.4708 19.4954 4.1396C19.4982 4.0928 19.4998 4.0464 19.4998 4C19.4998 2.6764 18.4234 1.6 17.0998 1.6C16.777 1.6 16.4626 1.6656 16.169 1.792C15.825 0.7504 14.8358 0 13.6998 0C12.0166 0 11.2682 1.5184 11.1078 2.3216C11.105 2.3348 11.1086 2.3476 11.1078 2.3612C11.1066 2.3748 11.0998 2.386 11.0998 2.4V21.176C11.0094 22.3116 10.045 23.2 8.89981 23.2C7.75861 23.2 6.797 22.3084 6.7102 21.1696C6.6942 20.9612 6.50861 20.8 6.2998 20.8C6.175 20.8 6.0574 20.8584 5.9814 20.9576C5.671 21.366 5.2038 21.6 4.6998 21.6C3.8174 21.6 3.0998 20.8824 3.0998 20C3.0998 19.6368 3.2262 19.2896 3.4662 18.9956C3.5742 18.8632 3.5862 18.6764 3.4954 18.5312C3.405 18.386 3.2338 18.314 3.065 18.3536C2.931 18.3848 2.8114 18.4 2.6998 18.4C1.8174 18.4 1.0998 17.6824 1.0998 16.8C1.0998 16.1404 1.5186 15.5404 2.1414 15.3068C2.2898 15.2512 2.3914 15.1136 2.4006 14.956C2.4098 14.798 2.325 14.6492 2.185 14.5768C1.5154 14.2316 1.0998 13.5504 1.0998 12.8C1.0998 12.0944 1.4626 11.4544 2.0706 11.088C2.1654 11.0308 2.2322 10.9368 2.2554 10.8284C2.2782 10.7196 2.255 10.6068 2.1914 10.516C2.0006 10.2436 1.8998 9.9272 1.8998 9.6C1.8998 8.9356 2.323 8.3344 2.9522 8.1036C3.0766 8.058 3.1706 7.9536 3.203 7.8252C3.235 7.6964 3.201 7.56 3.1126 7.4612C2.8462 7.164 2.6998 6.7872 2.6998 6.4C2.6998 5.6248 3.2554 4.9644 4.0202 4.8292C4.1274 4.81 4.223 4.748 4.2834 4.6572C4.3438 4.5664 4.3646 4.4548 4.3414 4.3484C4.3134 4.2236 4.2998 4.1096 4.2998 4C4.2998 3.1176 5.0174 2.4 5.8998 2.4C6.2462 2.4 6.5802 2.5156 6.8662 2.7344C6.9826 2.8232 7.13821 2.8416 7.27141 2.7824C7.40541 2.7228 7.4958 2.5952 7.5082 2.4496C7.5842 1.5248 8.3714 0.8 9.2998 0.8C9.74541 0.8 10.1138 0.9432 10.4258 1.2376C10.587 1.3892 10.8402 1.3816 10.9914 1.2208C11.143 1.06 11.1358 0.8072 10.975 0.6556C10.5138 0.2204 9.9502 0 9.2998 0C8.16381 0 7.1746 0.7504 6.8306 1.792C6.537 1.6656 6.2226 1.6 5.8998 1.6C4.5762 1.6 3.4998 2.6764 3.4998 4C3.4998 4.0464 3.5014 4.0928 3.5042 4.1396C2.5554 4.4708 1.8998 5.368 1.8998 6.4C1.8998 6.8148 2.0102 7.2204 2.2166 7.58C1.533 8.014 1.0998 8.7744 1.0998 9.6C1.0998 9.9584 1.1798 10.3084 1.3338 10.6296C0.680205 11.1576 0.299805 11.944 0.299805 12.8C0.299805 13.6168 0.651005 14.3744 1.2466 14.898C0.662205 15.3448 0.299805 16.0464 0.299805 16.8C0.299805 18.0372 1.241 19.0588 2.445 19.1864C2.349 19.4456 2.2998 19.7192 2.2998 20C2.2998 21.3236 3.3762 22.4 4.6998 22.4C5.1966 22.4 5.6694 22.2492 6.06621 21.9728C6.47421 23.1544 7.6018 24 8.89981 24C10.463 24 11.7802 22.7832 11.8986 21.2304C11.899 21.2252 11.8966 21.2204 11.8966 21.2152C11.897 21.2096 11.8998 21.2056 11.8998 21.2V2.444C11.959 2.1984 12.3538 0.8 13.6998 0.8C14.6282 0.8 15.4154 1.5248 15.4914 2.4496C15.5038 2.5952 15.5942 2.7228 15.7282 2.7824C15.8614 2.8416 16.017 2.8232 16.1334 2.7344C16.4194 2.5156 16.7534 2.4 17.0998 2.4C17.9822 2.4 18.6998 3.1176 18.6998 4C18.6998 4.1096 18.6862 4.2236 18.6582 4.3484C18.635 4.4548 18.6558 4.5664 18.7162 4.6572C18.7766 4.748 18.8722 4.81 18.9794 4.8292C19.7442 4.9644 20.2998 5.6248 20.2998 6.4C20.2998 6.7872 20.1534 7.164 19.887 7.4612C19.7986 7.56 19.7646 7.6964 19.7966 7.8252C19.829 7.9536 19.923 8.058 20.0474 8.1036C20.6766 8.3344 21.0998 8.9356 21.0998 9.6C21.0998 9.9272 20.999 10.2436 20.8082 10.516C20.7446 10.6068 20.7214 10.7196 20.7442 10.8284C20.7674 10.9368 20.8342 11.0308 20.929 11.088C21.537 11.4544 21.8998 12.0944 21.8998 12.8C21.8998 13.5504 21.4842 14.2316 20.8146 14.5768C20.6746 14.6492 20.5898 14.798 20.599 14.956C20.6082 15.1136 20.7098 15.2512 20.8582 15.3068C21.481 15.5404 21.8998 16.1404 21.8998 16.8C21.8998 17.6824 21.1822 18.4 20.2998 18.4C20.1882 18.4 20.0686 18.3848 19.9346 18.3536C19.7666 18.314 19.595 18.386 19.5042 18.5312C19.4134 18.6764 19.4254 18.8632 19.5334 18.9956C19.7734 19.2896 19.8998 19.6368 19.8998 20C19.8998 20.8824 19.1822 21.6 18.2998 21.6C17.7942 21.6 17.3278 21.3632 17.0206 20.95C16.9174 20.812 16.7378 20.7556 16.5742 20.8092C16.515 20.8288 16.463 20.8612 16.421 20.9024C16.3466 20.9688 16.2974 21.0632 16.2894 21.1696C16.2026 22.3084 15.241 23.2 14.0998 23.2C13.597 23.2 13.1226 23.0348 12.7278 22.7224C12.5538 22.5852 12.303 22.6148 12.1658 22.7876C12.0286 22.9608 12.0582 23.2124 12.231 23.3496C12.761 23.7688 13.425 24 14.0998 24C15.3986 24 16.527 23.1528 16.9342 21.97C17.3298 22.2484 17.8018 22.4 18.2998 22.4C19.6234 22.4 20.6998 21.3236 20.6998 20C20.6998 19.7192 20.6506 19.4456 20.5546 19.1864C21.7586 19.0588 22.6998 18.0372 22.6998 16.8C22.6998 16.0464 22.3374 15.3448 21.753 14.898ZM14.6998 18C14.6998 18.2208 14.8786 18.4 15.0998 18.4C15.683 18.4 16.2998 19.0168 16.2998 19.6C16.2998 19.8208 16.4786 20 16.6998 20C16.921 20 17.0998 19.8208 17.0998 19.6C17.0998 18.572 16.1278 17.6 15.0998 17.6C14.8786 17.6 14.6998 17.7792 14.6998 18ZM18.2998 7.2C17.7166 7.2 17.0998 6.5832 17.0998 6C17.0998 5.7792 16.921 5.6 16.6998 5.6C16.4786 5.6 16.2998 5.7792 16.2998 6C16.2998 7.028 17.2718 8 18.2998 8C18.521 8 18.6998 7.8208 18.6998 7.6C18.6998 7.3792 18.521 7.2 18.2998 7.2ZM13.4998 16C13.721 16 13.8998 15.8208 13.8998 15.6C13.8998 15.0168 14.5166 14.4 15.0998 14.4C15.321 14.4 15.4998 14.2208 15.4998 14C15.4998 13.7792 15.321 13.6 15.0998 13.6C14.0718 13.6 13.0998 14.572 13.0998 15.6C13.0998 15.8208 13.2786 16 13.4998 16ZM15.0998 11.2C15.321 11.2 15.4998 11.0208 15.4998 10.8C15.4998 10.5792 15.321 10.4 15.0998 10.4C14.5166 10.4 13.8998 9.7832 13.8998 9.2C13.8998 8.9792 13.721 8.8 13.4998 8.8C13.2786 8.8 13.0998 8.9792 13.0998 9.2C13.0998 10.228 14.0718 11.2 15.0998 11.2ZM19.0998 9.6C18.8786 9.6 18.6998 9.7792 18.6998 10C18.6998 10.5832 18.083 11.2 17.4998 11.2C17.2786 11.2 17.0998 11.3792 17.0998 11.6C17.0998 11.8208 17.2786 12 17.4998 12C18.5278 12 19.4998 11.028 19.4998 10C19.4998 9.7792 19.321 9.6 19.0998 9.6ZM17.4998 14.4C17.2786 14.4 17.0998 14.5792 17.0998 14.8C17.0998 15.0208 17.2786 15.2 17.4998 15.2C18.083 15.2 18.6998 15.8168 18.6998 16.4C18.6998 16.6208 18.8786 16.8 19.0998 16.8C19.321 16.8 19.4998 16.6208 19.4998 16.4C19.4998 15.372 18.5278 14.4 17.4998 14.4ZM13.0998 5.6C13.0998 4.572 14.0718 3.6 15.0998 3.6C15.321 3.6 15.4998 3.7792 15.4998 4C15.4998 4.2208 15.321 4.4 15.0998 4.4C14.5166 4.4 13.8998 5.0168 13.8998 5.6C13.8998 5.8208 13.721 6 13.4998 6C13.2786 6 13.0998 5.8208 13.0998 5.6Z" fill="white"/>
</g>
</g>
</g>
<defs>
<clipPath id="clip0_1898_600">
<rect width="22.4" height="24" fill="white" transform="translate(0.299805)"/>
</clipPath>
</defs>
</svg>
