<svg width="29" height="27" viewBox="0 0 29 27" fill="none" xmlns="http://www.w3.org/2000/svg">
<g id="heroicons-outline/document-text">
<path id="Vector" d="M23.5625 15.9375V13.0938C23.5625 11.0745 21.7367 9.4375 19.4844 9.4375H17.6719C16.9211 9.4375 16.3125 8.89185 16.3125 8.21875V6.59375C16.3125 4.57446 14.4867 2.9375 12.2344 2.9375H9.96875M9.96875 16.75H19.0312M9.96875 20H14.5M12.6875 2.9375H6.79688C6.04611 2.9375 5.4375 3.48315 5.4375 4.15625V22.8438C5.4375 23.5168 6.04611 24.0625 6.79687 24.0625H22.2031C22.9539 24.0625 23.5625 23.5168 23.5625 22.8438V12.6875C23.5625 7.30272 18.6936 2.9375 12.6875 2.9375Z" stroke="white" stroke-width="1.5" stroke-linecap="round" stroke-linejoin="round"/>
</g>
</svg>
