<svg width="49" height="48" viewBox="0 0 49 48" fill="none" xmlns="http://www.w3.org/2000/svg">
<g id="chart-growth 1">
<g id="Group">
<path id="Vector" d="M25.8333 23H17.8333C17.281 23 16.8333 23.4477 16.8333 24V42C16.8333 42.5522 17.281 43 17.8333 43H25.8333C26.3855 43 26.8333 42.5522 26.8333 42V24C26.8333 23.4477 26.3855 23 25.8333 23Z" fill="#53DC94"/>
<path id="Vector_2" d="M11.8333 31H3.83325C3.281 31 2.83325 31.4477 2.83325 32V42C2.83325 42.5522 3.281 43 3.83325 43H11.8333C12.3855 43 12.8333 42.5522 12.8333 42V32C12.8333 31.4477 12.3855 31 11.8333 31Z" fill="#87E1B2"/>
<path id="Vector_3" d="M45.5764 15.3311L36.5764 5.33106C36.1975 4.90918 35.469 4.90918 35.0901 5.33106L26.0901 15.3311C25.8259 15.6245 25.7591 16.0459 25.9197 16.4067C26.0803 16.7676 26.4383 17 26.8333 17H30.8333V42C30.8333 42.5523 31.281 43 31.8333 43H39.8333C40.3855 43 40.8333 42.5523 40.8333 42V17H44.8333C45.2283 17 45.5862 16.7676 45.7468 16.4067C45.9075 16.0459 45.8406 15.6245 45.5764 15.3311Z" fill="#1DC06A"/>
</g>
</g>
</svg>
