<svg width="35" height="36" viewBox="0 0 35 36" fill="none" xmlns="http://www.w3.org/2000/svg">
<path d="M3.25 20.4444H8.82472C10.0557 20.4444 11.1811 21.1578 11.7316 22.2871L12.1017 23.0463C12.6522 24.1755 13.7776 24.8889 15.0086 24.8889H19.6581C20.8891 24.8889 22.0144 24.1755 22.5649 23.0463L22.9351 22.2871C23.4856 21.1578 24.6109 20.4444 25.8419 20.4444H31.4167M3.25 20.9457V27.1111C3.25 28.9521 4.70508 30.4444 6.5 30.4444H28.1667C29.9616 30.4444 31.4167 28.9521 31.4167 27.1111V20.9457C31.4167 20.6134 31.3682 20.283 31.2729 19.9654L27.7892 8.35305C27.3697 6.95441 26.1097 6 24.683 6H9.9837C8.55694 6 7.29701 6.95441 6.87742 8.35305L3.39372 19.9654C3.29844 20.283 3.25 20.6134 3.25 20.9457Z" stroke="white" stroke-width="1.5" stroke-linecap="round" stroke-linejoin="round"/>
</svg>
