<svg width="25" height="24" viewBox="0 0 25 24" fill="none" xmlns="http://www.w3.org/2000/svg">
<g id="heroicons-outline/cube-transparent">
<path id="Vector" d="M21.5 7.5L19.25 6.1875M21.5 7.5V9.75M21.5 7.5L19.25 8.8125M3.5 7.5L5.75 6.1875M3.5 7.5L5.75 8.8125M3.5 7.5V9.75M12.5 12.75L14.75 11.4375M12.5 12.75L10.25 11.4375M12.5 12.75V15M12.5 21.75L14.75 20.4375M12.5 21.75V19.5M12.5 21.75L10.25 20.4375M10.25 3.5625L12.5 2.25L14.75 3.5625M21.5 14.25V16.5L19.25 17.8125M5.75 17.8125L3.5 16.5V14.25" stroke="white" stroke-width="1.5" stroke-linecap="round" stroke-linejoin="round"/>
</g>
</svg>
