<svg width="25" height="24" viewBox="0 0 25 24" fill="none" xmlns="http://www.w3.org/2000/svg">
<g id="heroicons-solid/adjustments-vertical">
<g id="Union">
<path d="M6.5 12C6.08579 12 5.75 11.6642 5.75 11.25L5.75002 3.75C5.75002 3.33578 6.0858 3 6.50002 3C6.91423 3 7.25002 3.33579 7.25002 3.75L7.25 11.25C7.25 11.6642 6.91421 12 6.5 12Z" fill="white"/>
<path d="M18.5 12C18.0858 12 17.75 11.6642 17.75 11.25L17.75 3.75C17.75 3.33578 18.0858 3 18.5 3C18.9142 3 19.25 3.33579 19.25 3.75L19.25 11.25C19.25 11.6642 18.9142 12 18.5 12Z" fill="white"/>
<path d="M7.25001 20.25L7.25 18.75C7.25 18.3358 6.91421 18 6.49999 18C6.08578 18 5.75 18.3358 5.75 18.75L5.75001 20.25C5.75002 20.6642 6.08581 21 6.50002 21C6.91424 21 7.25002 20.6642 7.25001 20.25Z" fill="white"/>
<path d="M19.25 18.75L19.25 20.25C19.25 20.6642 18.9142 21 18.5 21C18.0858 21 17.75 20.6642 17.75 20.25L17.75 18.75C17.75 18.3358 18.0858 18 18.5 18C18.9142 18 19.25 18.3358 19.25 18.75Z" fill="white"/>
<path d="M13.25 5.24999L13.25 3.74999C13.25 3.33578 12.9142 3 12.5 3C12.0858 3 11.75 3.33579 11.75 3.75001L11.75 5.25001C11.75 5.66422 12.0858 6 12.5 6C12.9142 6 13.25 5.66421 13.25 5.24999Z" fill="white"/>
<path d="M12.5 21C12.0858 21 11.75 20.6642 11.75 20.25V12.75C11.75 12.3358 12.0858 12 12.5 12C12.9142 12 13.25 12.3358 13.25 12.75V20.25C13.25 20.6642 12.9142 21 12.5 21Z" fill="white"/>
<path d="M4.25 15C4.25 16.2426 5.25736 17.25 6.5 17.25C7.74264 17.25 8.75 16.2426 8.75 15C8.75 13.7574 7.74264 12.75 6.5 12.75C5.25736 12.75 4.25 13.7574 4.25 15Z" fill="white"/>
<path d="M12.5 11.25C11.2574 11.25 10.25 10.2426 10.25 9C10.25 7.75736 11.2574 6.75 12.5 6.75C13.7426 6.75 14.75 7.75736 14.75 9C14.75 10.2426 13.7426 11.25 12.5 11.25Z" fill="white"/>
<path d="M16.25 15C16.25 16.2426 17.2574 17.25 18.5 17.25C19.7426 17.25 20.75 16.2426 20.75 15C20.75 13.7574 19.7426 12.75 18.5 12.75C17.2574 12.75 16.25 13.7574 16.25 15Z" fill="white"/>
</g>
</g>
</svg>
