<svg width="24" height="25" viewBox="0 0 24 25" fill="none" xmlns="http://www.w3.org/2000/svg">
<path d="M6.72012 14.3287C6.47944 14.3589 6.23939 14.3911 6 14.4253M6.72012 14.3287C8.44957 14.1118 10.2117 14 12 14C13.7883 14 15.5504 14.1118 17.2799 14.3287M6.72012 14.3287L6.34091 18.5M17.2799 14.3287C17.5206 14.3589 17.7606 14.3911 18 14.4253M17.2799 14.3287L17.6591 18.5M17.6591 18.5L17.8885 21.0231C17.9484 21.682 17.4296 22.25 16.7681 22.25H7.23191C6.57038 22.25 6.05164 21.682 6.11153 21.0231L6.34091 18.5M17.6591 18.5H18.75C19.9926 18.5 21 17.4926 21 16.25V9.95569C21 8.87475 20.2321 7.94082 19.1631 7.78086C18.5293 7.68604 17.8916 7.60361 17.25 7.53381M6.34091 18.5H5.25C4.00736 18.5 3 17.4926 3 16.25V9.95569C3 8.87475 3.7679 7.94082 4.83694 7.78086C5.47066 7.68604 6.10843 7.60361 6.75 7.53381M17.25 7.53381C15.5258 7.34625 13.7741 7.25 12 7.25C10.2259 7.25 8.47423 7.34625 6.75 7.53381M17.25 7.53381V3.875C17.25 3.25368 16.7463 2.75 16.125 2.75H7.875C7.25368 2.75 6.75 3.25368 6.75 3.875V7.53381M18 11H18.0075V11.0075H18V11ZM15 11H15.0075V11.0075H15V11Z" stroke="#00A7FA" stroke-width="1.5" stroke-linecap="round" stroke-linejoin="round"/>
</svg>
