<svg width="24" height="25" viewBox="0 0 24 25" fill="none" xmlns="http://www.w3.org/2000/svg">
<path d="M10.3427 4.44005C10.4331 3.89759 10.9024 3.5 11.4523 3.5H12.5463C13.0963 3.5 13.5656 3.89759 13.656 4.44005L13.805 5.33386C13.8757 5.75813 14.1886 6.09838 14.5859 6.26332C14.9833 6.42832 15.4396 6.40629 15.7898 6.15617L16.5273 5.62933C16.9749 5.30969 17.5879 5.36042 17.9767 5.74929L18.7503 6.52284C19.1392 6.91171 19.1899 7.52472 18.8702 7.97223L18.3432 8.71007C18.0932 9.06012 18.0711 9.51633 18.2361 9.91363C18.401 10.3108 18.7411 10.6236 19.1653 10.6943L20.0593 10.8433C20.6017 10.9337 20.9993 11.4031 20.9993 11.953V13.047C20.9993 13.5969 20.6017 14.0663 20.0593 14.1567L19.1655 14.3056C18.7412 14.3764 18.4009 14.6893 18.236 15.0865C18.071 15.4839 18.0931 15.9403 18.3432 16.2904L18.8699 17.0278C19.1895 17.4753 19.1388 18.0884 18.7499 18.4772L17.9764 19.2508C17.5875 19.6396 16.9745 19.6904 16.527 19.3707L15.7894 18.8439C15.4393 18.5938 14.9831 18.5718 14.5857 18.7367C14.1886 18.9016 13.8757 19.2418 13.805 19.666L13.656 20.5599C13.5656 21.1024 13.0963 21.5 12.5463 21.5H11.4523C10.9024 21.5 10.4331 21.1024 10.3427 20.5599L10.1937 19.6661C10.123 19.2419 9.81005 18.9016 9.41282 18.7367C9.01541 18.5717 8.55908 18.5937 8.20893 18.8438L7.47131 19.3707C7.0238 19.6904 6.41079 19.6396 6.02192 19.2507L5.24837 18.4772C4.8595 18.0883 4.80877 17.4753 5.12842 17.0278L5.65545 16.29C5.90549 15.9399 5.92754 15.4837 5.76258 15.0864C5.5977 14.6892 5.25752 14.3764 4.83335 14.3057L3.93938 14.1567C3.39692 14.0663 2.99933 13.5969 2.99933 13.047V11.953C2.99933 11.4031 3.39692 10.9337 3.93938 10.8433L4.83319 10.6944C5.25746 10.6236 5.59771 10.3107 5.76265 9.91347C5.92766 9.51605 5.90562 9.0597 5.6555 8.70954L5.12881 7.97216C4.80916 7.52465 4.85989 6.91164 5.24876 6.52277L6.02231 5.74922C6.41118 5.36036 7.02419 5.30962 7.4717 5.62927L8.2093 6.15613C8.55937 6.40618 9.01561 6.42822 9.41293 6.26326C9.8101 6.09837 10.123 5.75819 10.1937 5.334L10.3427 4.44005Z" stroke="white" stroke-width="1.5" stroke-linecap="round" stroke-linejoin="round"/>
<path d="M15 12.5C15 14.1569 13.6569 15.5 12 15.5C10.3432 15.5 9.00003 14.1569 9.00003 12.5C9.00003 10.8432 10.3432 9.50002 12 9.50002C13.6569 9.50002 15 10.8432 15 12.5Z" stroke="white" stroke-width="1.5" stroke-linecap="round" stroke-linejoin="round"/>
</svg>
