<svg width="49" height="48" viewBox="0 0 49 48" fill="none" xmlns="http://www.w3.org/2000/svg">
<g id="quite-happy 1">
<g id="Group">
<path id="Vector" d="M24.8333 46C20.4821 46 16.2286 44.7097 12.6107 42.2923C8.99284 39.875 6.17304 36.439 4.50791 32.419C2.84278 28.3991 2.40711 23.9756 3.25599 19.708C4.10486 15.4404 6.20016 11.5204 9.27691 8.44366C12.3537 5.36691 16.2737 3.27161 20.5413 2.42273C24.8089 1.57386 29.2323 2.00953 33.2523 3.67466C37.2723 5.33979 40.7082 8.15958 43.1256 11.7775C45.543 15.3953 46.8333 19.6488 46.8333 24C46.8266 29.8327 44.5067 35.4247 40.3823 39.5491C36.2579 43.6734 30.666 45.9934 24.8333 46Z" fill="#FFD764"/>
<path id="Vector_2" d="M14.8333 25C14.2399 25 13.6599 24.8241 13.1665 24.4944C12.6732 24.1648 12.2887 23.6962 12.0616 23.1481C11.8346 22.5999 11.7751 21.9967 11.8909 21.4147C12.0067 20.8328 12.2924 20.2982 12.7119 19.8787C13.1315 19.4591 13.666 19.1734 14.248 19.0576C14.8299 18.9419 15.4331 19.0013 15.9813 19.2284C16.5295 19.4554 16.998 19.8399 17.3277 20.3333C17.6573 20.8266 17.8333 21.4067 17.8333 22C17.8333 22.7957 17.5172 23.5587 16.9546 24.1213C16.392 24.6839 15.6289 25 14.8333 25Z" fill="#989898"/>
<path id="Vector_3" d="M34.8333 25C34.2399 25 33.6599 24.8241 33.1665 24.4944C32.6732 24.1648 32.2887 23.6962 32.0616 23.1481C31.8346 22.5999 31.7751 21.9967 31.8909 21.4147C32.0067 20.8328 32.2924 20.2982 32.7119 19.8787C33.1315 19.4591 33.666 19.1734 34.248 19.0576C34.8299 18.9419 35.4331 19.0013 35.9813 19.2284C36.5295 19.4554 36.998 19.8399 37.3277 20.3333C37.6573 20.8266 37.8333 21.4067 37.8333 22C37.8333 22.7957 37.5172 23.5587 36.9546 24.1213C36.392 24.6839 35.6289 25 34.8333 25Z" fill="#989898"/>
<path id="Vector_4" d="M33.8333 32C33.8333 31.7348 33.7279 31.4804 33.5404 31.2929C33.3528 31.1054 33.0985 31 32.8333 31H16.8333C16.568 31 16.3137 31.1054 16.1261 31.2929C15.9386 31.4804 15.8333 31.7348 15.8333 32V33H33.8333V32Z" fill="white"/>
<path id="Vector_5" d="M15.8922 33C16.1447 35.1943 17.1953 37.2192 18.844 38.689C20.4927 40.1589 22.6244 40.9712 24.8332 40.9712C27.042 40.9712 29.1737 40.1589 30.8224 38.689C32.4711 37.2192 33.5217 35.1943 33.7742 33H15.8922Z" fill="#AE453E"/>
<path id="Vector_6" d="M19.9473 39.547C21.4005 40.4951 23.0981 40.9999 24.8333 40.9999C26.5684 40.9999 28.2661 40.4951 29.7193 39.547C29.1699 38.7606 28.4389 38.1184 27.5883 37.675C26.7376 37.2315 25.7925 37 24.8333 37C23.874 37 22.9289 37.2315 22.0783 37.675C21.2276 38.1184 20.4966 38.7606 19.9473 39.547Z" fill="#FA645A"/>
</g>
</g>
</svg>
